<svg width="32" height="32" viewBox="0 0 32 32" fill="none" xmlns="http://www.w3.org/2000/svg">
<path d="M28 2H3.99375C2.89375 2 2 2.90625 2 4.01875V27.9813C2 29.0938 2.89375 30 3.99375 30H28C29.1 30 30 29.0938 30 27.9813V4.01875C30 2.90625 29.1 2 28 2ZM10.4625 26H6.3125V12.6375H10.4688V26H10.4625ZM8.3875 10.8125C7.05625 10.8125 5.98125 9.73125 5.98125 8.40625C5.98125 7.08125 7.05625 6 8.3875 6C9.7125 6 10.7937 7.08125 10.7937 8.40625C10.7937 9.7375 9.71875 10.8125 8.3875 10.8125ZM26.0187 26H21.8687V19.5C21.8687 17.95 21.8375 15.9563 19.7125 15.9563C17.55 15.9563 17.2188 17.6438 17.2188 19.3875V26H13.0688V12.6375H17.05V14.4625H17.1062C17.6625 13.4125 19.0188 12.3062 21.0375 12.3062C25.2375 12.3062 26.0187 15.075 26.0187 18.675V26Z" fill="url(#paint0_linear)"/>
<defs>
<linearGradient id="paint0_linear" x1="16" y1="2" x2="16" y2="30" gradientUnits="userSpaceOnUse">
<stop stop-color="white"/>
<stop offset="1" stop-color="#A7289F"/>
</linearGradient>
</defs>
</svg>
