<svg width="95" height="81" viewBox="0 0 95 81" fill="none" xmlns="http://www.w3.org/2000/svg">
<path d="M49.1592 0.0258744C48.756 -0.0100889 48.3468 -0.00963449 47.936 0.0339888C46.2886 0.214714 44.8114 1.03009 43.7738 2.32632C41.6303 5.00396 42.0561 8.93577 44.7225 11.0899L51.5451 16.6037H16.455C13.0363 16.6037 10.2541 19.3997 10.2541 22.8356C10.2541 26.2715 13.0363 29.0675 16.455 29.0675H31.8241L2.38993 52.9767C1.05259 54.0632 0.218216 55.6082 0.0363221 57.3261C-0.143505 59.044 0.34808 60.7331 1.42911 62.0771C2.51013 63.4211 4.04744 64.2597 5.75683 64.4425C7.46622 64.6232 9.14689 64.1291 10.4842 63.0427L24.7996 51.4147C25.9964 67.9105 41.2649 81 59.8615 81C79.2373 81 95 66.7892 95 49.3212C95 38.5275 88.9869 28.5925 78.9043 22.7179L52.4938 1.37693C51.5249 0.594827 50.3688 0.133764 49.1592 0.0258744ZM59.8615 31.1448C70.1178 31.1448 78.4642 38.1328 78.4642 46.7246C78.4642 55.3163 70.1178 62.3043 59.8615 62.3043C49.6051 62.3043 41.2587 55.3163 41.2587 46.7246C41.2587 38.1328 49.6051 31.1448 59.8615 31.1448ZM59.8615 35.2994C56.5723 35.2994 53.4178 36.3937 51.092 38.3415C48.7662 40.2894 47.4596 42.9312 47.4596 45.6859C47.4596 48.4406 48.7662 51.0824 51.092 53.0303C53.4178 54.9781 56.5723 56.0724 59.8615 56.0724C63.1506 56.0724 66.3051 54.9781 68.6309 53.0303C70.9567 51.0824 72.2633 48.4406 72.2633 45.6859C72.2633 42.9312 70.9567 40.2894 68.6309 38.3415C66.3051 36.3937 63.1506 35.2994 59.8615 35.2994Z" fill="#E5E5E5"/>
</svg>
