<svg width="24" height="24" viewBox="0 0 24 24" fill="none" xmlns="http://www.w3.org/2000/svg">
<path d="M22.5 3.75V20.25C22.5 21.4927 21.4927 22.5 20.25 22.5H3.75C2.50734 22.5 1.5 21.4927 1.5 20.25V3.75C1.5 2.50734 2.50734 1.5 3.75 1.5H20.25C21.4927 1.5 22.5 2.50734 22.5 3.75ZM18.375 4.5H13.1264C12.1273 4.5 11.6226 5.71223 12.3308 6.42052L13.8301 7.91991L4.66477 17.0852C4.44511 17.3049 4.44511 17.661 4.66477 17.8807L6.11925 19.3352C6.33895 19.5549 6.69511 19.5549 6.91477 19.3352L16.08 10.17L17.5795 11.6695C18.284 12.3739 19.5 11.8793 19.5 10.874V5.625C19.5 5.00367 18.9963 4.5 18.375 4.5Z" fill="url(#paint0_linear)"/>
<defs>
<linearGradient id="paint0_linear" x1="12" y1="1.5" x2="12" y2="22.5" gradientUnits="userSpaceOnUse">
<stop stop-color="#E5E5E5"/>
<stop offset="1" stop-color="#CC6699"/>
</linearGradient>
</defs>
</svg>
