<svg width="85" height="85" viewBox="0 0 85 85" fill="none" xmlns="http://www.w3.org/2000/svg">
<path d="M56.6143 28.3389C60.3722 28.3389 63.9763 26.846 66.6336 24.1887C69.2908 21.5315 70.7837 17.9274 70.7837 14.1694C70.7837 10.4115 69.2908 6.80742 66.6336 4.15013C63.9763 1.49285 60.3722 0 56.6143 0L28.2754 0C24.5196 0 20.9177 1.49197 18.262 4.1477C15.6062 6.80343 14.1143 10.4054 14.1143 14.1611C14.1143 17.9169 15.6062 21.5188 18.262 24.1746C20.9177 26.8303 24.5196 28.3223 28.2754 28.3223C24.5174 28.3223 20.9134 29.8151 18.2561 32.4724C15.5988 35.1297 14.106 38.7337 14.106 42.4917C14.106 46.2497 15.5988 49.8537 18.2561 52.511C20.9134 55.1683 24.5174 56.6611 28.2754 56.6611C25.4729 56.6595 22.7329 57.4889 20.4019 59.0445C18.0708 60.6001 16.2534 62.812 15.1794 65.4005C14.1055 67.989 13.8232 70.8378 14.3683 73.5867C14.9134 76.3357 16.2615 78.8612 18.2419 80.844C20.2224 82.8268 22.7464 84.1778 25.4946 84.7261C28.2429 85.2745 31.0921 84.9955 33.6818 83.9246C36.2716 82.8537 38.4856 81.0388 40.0439 78.7096C41.6023 76.3803 42.4349 73.6413 42.4365 70.8389V28.3389H56.6143ZM56.6143 28.3389C53.8135 28.3389 51.0755 29.1694 48.7468 30.7254C46.418 32.2815 44.6029 34.4932 43.5311 37.0808C42.4593 39.6684 42.1788 42.5157 42.7252 45.2627C43.2716 48.0097 44.6204 50.533 46.6008 52.5134C48.5813 54.4939 51.1046 55.8426 53.8516 56.389C56.5985 56.9354 59.4459 56.655 62.0335 55.5832C64.6211 54.5114 66.8328 52.6963 68.3888 50.3675C69.9449 48.0387 70.7754 45.3008 70.7754 42.5C70.7749 38.7444 69.2828 35.1427 66.6272 32.4871C63.9716 29.8314 60.3699 28.3393 56.6143 28.3389Z" fill="#E5E5E5"/>
</svg>
