<svg width="86" height="86" viewBox="0 0 86 86" fill="none" xmlns="http://www.w3.org/2000/svg">
<path d="M72.5625 5.375H13.4375C8.98633 5.375 5.375 8.98633 5.375 13.4375V72.5625C5.375 77.0137 8.98633 80.625 13.4375 80.625H72.5625C77.0137 80.625 80.625 77.0137 80.625 72.5625V13.4375C80.625 8.98633 77.0137 5.375 72.5625 5.375ZM46.3258 64.0633C46.3258 71.3867 42.0258 74.7293 35.7605 74.7293C30.1 74.7293 26.8246 71.8066 25.1449 68.2625L30.9062 64.7855C32.0148 66.7508 33.0227 68.4137 35.4582 68.4137C37.7762 68.4137 39.2543 67.5066 39.2543 63.9625V39.9262H46.3258V64.0633ZM63.0555 74.7293C56.4879 74.7293 52.2383 71.6051 50.1723 67.5066L55.9336 64.1809C57.4453 66.65 59.4273 68.4809 62.9043 68.4809C65.827 68.4809 67.7082 67.0195 67.7082 64.9871C67.7082 62.5684 65.7934 61.7117 62.5516 60.284L60.7879 59.5281C55.6816 57.3613 52.3055 54.6234 52.3055 48.8621C52.3055 43.5543 56.3535 39.523 62.6523 39.523C67.1539 39.523 70.3789 41.0852 72.6969 45.1836L67.1875 48.7109C65.9781 46.5441 64.668 45.6875 62.6355 45.6875C60.5695 45.6875 59.2594 46.9977 59.2594 48.7109C59.2594 50.8273 60.5695 51.684 63.6098 53.0109L65.3734 53.7668C71.3867 56.3367 74.7629 58.9738 74.7629 64.8863C74.7629 71.2355 69.7574 74.7293 63.0555 74.7293Z" fill="#E5E5E5"/>
</svg>
