<svg width="90" height="90" viewBox="0 0 90 90" fill="none" xmlns="http://www.w3.org/2000/svg">
<path d="M73.5117 31.1482C72.5625 30.8318 71.6133 30.533 70.6641 30.2517C70.8223 29.6013 70.9629 28.9509 71.1035 28.3005C73.2656 17.824 71.8418 9.40405 67.043 6.62671C62.4199 3.97241 54.8789 6.73218 47.25 13.3767C46.4941 14.0271 45.7559 14.7126 45.0527 15.3982C44.5781 14.9412 44.0859 14.4841 43.5938 14.0447C35.5957 6.94311 27.5801 3.95483 22.7813 6.74976C18.1758 9.42163 16.8047 17.3494 18.7383 27.2634C18.9316 28.2478 19.1426 29.2146 19.3887 30.199C18.2637 30.5154 17.1562 30.8669 16.1191 31.2361C6.73242 34.488 0 39.6208 0 44.9294C0 50.4138 7.17188 55.9158 16.9277 59.2556C17.7188 59.5193 18.5098 59.783 19.3184 60.0115C19.0547 61.0662 18.8262 62.1033 18.6152 63.1755C16.7695 72.9314 18.2109 80.6658 22.8164 83.3201C27.5625 86.0623 35.543 83.2498 43.3125 76.447C43.9277 75.9021 44.543 75.3396 45.1582 74.7419C45.9316 75.4978 46.7402 76.2185 47.5488 76.9216C55.0723 83.3904 62.5078 86.0095 67.0957 83.3552C71.8418 80.613 73.3887 72.2986 71.3848 62.1736C71.2266 61.4001 71.0508 60.6091 70.8574 59.8005C71.4199 59.6423 71.9648 59.4665 72.5098 59.2908C82.6523 55.9333 90 50.5017 90 44.9294C90 39.6033 83.0742 34.4353 73.5117 31.1482ZM49.7285 16.2244C56.2676 10.5291 62.3672 8.29663 65.1445 9.89624C68.1152 11.6013 69.2578 18.4919 67.3945 27.5447C67.2715 28.1423 67.1484 28.7224 66.9902 29.3025C63.0879 28.4236 59.1328 27.7908 55.1602 27.4392C52.875 24.1697 50.3789 21.0408 47.6719 18.1052C48.3574 17.4548 49.0254 16.8396 49.7285 16.2244ZM29.3906 54.0525C30.2871 55.5818 31.2012 57.1111 32.168 58.6052C29.4258 58.3064 26.7012 57.8669 24.0117 57.2869C24.7852 54.7556 25.752 52.1365 26.877 49.4646C27.6855 51.0115 28.5117 52.5408 29.3906 54.0525ZM24.0645 32.906C26.5957 32.3435 29.2852 31.8865 32.0801 31.5349C31.1484 32.9939 30.2344 34.488 29.373 35.9998C28.5117 37.4939 27.668 39.0232 26.877 40.5701C25.7695 37.9509 24.8379 35.3845 24.0645 32.906ZM28.8809 45.0173C30.041 42.5916 31.3066 40.2185 32.6426 37.8806C33.9785 35.5427 35.4199 33.2751 36.9316 31.0427C39.5684 30.8494 42.2578 30.7439 45 30.7439C47.7422 30.7439 50.4492 30.8494 53.0684 31.0427C54.5625 33.2576 55.9863 35.5251 57.3398 37.8455C58.6934 40.1658 59.959 42.5388 61.1543 44.947C59.9766 47.3728 58.7109 49.7634 57.3574 52.1189C56.0215 54.4568 54.5977 56.7244 53.1035 58.9744C50.4844 59.1677 47.7598 59.2556 45 59.2556C42.2402 59.2556 39.5684 59.1677 36.9844 59.0095C35.4551 56.7771 34.0137 54.4919 32.6602 52.1541C31.3066 49.8162 30.0586 47.4431 28.8809 45.0173ZM60.627 54.0173C61.5234 52.4705 62.3672 50.906 63.1934 49.324C64.3184 51.8728 65.3027 54.4568 66.1641 57.1111C63.4395 57.7263 60.6797 58.2009 57.9023 58.5173C58.8516 57.0408 59.748 55.529 60.627 54.0173ZM63.1582 40.5701C62.332 39.0232 61.4883 37.4763 60.6094 35.9646C59.748 34.4705 58.8516 32.9939 57.9199 31.5349C60.75 31.8865 63.457 32.3611 65.9883 32.9412C65.1797 35.5427 64.2305 38.074 63.1582 40.5701ZM45.0352 20.7947C46.8809 22.7986 48.6211 24.908 50.2383 27.0876C46.7578 26.9294 43.2598 26.9294 39.7793 27.0876C41.502 24.8201 43.2773 22.7107 45.0352 20.7947ZM24.6445 10.0193C27.5977 8.29663 34.1543 10.7576 41.0625 16.8748C41.502 17.2615 41.9414 17.6833 42.3984 18.1052C39.6738 21.0408 37.1602 24.1697 34.8574 27.4392C30.8848 27.7908 26.9473 28.406 23.0449 29.2673C22.8164 28.3708 22.623 27.4568 22.4297 26.5427C20.7773 18.0349 21.8672 11.6189 24.6445 10.0193ZM20.3379 56.3552C19.5996 56.1443 18.8789 55.9158 18.1582 55.6697C14.4141 54.4919 10.1602 52.6287 7.08398 50.1853C5.30859 48.9548 4.11328 47.0564 3.7793 44.9294C3.7793 41.7126 9.33398 37.5994 17.3496 34.8044C18.3516 34.4529 19.3711 34.1365 20.3906 33.8376C21.5859 37.6521 23.0273 41.3962 24.6973 45.0173C23.0098 48.6912 21.5508 52.488 20.3379 56.3552ZM40.834 73.5818C37.9336 76.2361 34.5762 78.3455 30.9199 79.7869C28.9687 80.7185 26.7188 80.8064 24.7148 80.0154C21.9199 78.3982 20.7598 72.1931 22.3418 63.8435C22.5352 62.8591 22.7461 61.8748 22.9922 60.908C26.9297 61.7517 30.9023 62.3318 34.9277 62.6306C37.248 65.9177 39.7969 69.0642 42.5215 72.0173C41.959 72.5623 41.3965 73.0896 40.834 73.5818ZM45.1406 69.3103C43.3477 67.3767 41.5547 65.2322 39.8145 62.9294C41.502 62.9998 43.2422 63.0349 45 63.0349C46.8105 63.0349 48.5859 62.9998 50.3438 62.9119C48.7266 65.1443 46.9863 67.2712 45.1406 69.3103ZM68.1152 74.5837C67.957 76.7283 66.9023 78.7322 65.2148 80.0857C62.4199 81.7029 56.4609 79.5935 50.0273 74.074C49.2891 73.4412 48.5508 72.7556 47.7949 72.0525C50.4844 69.0818 52.9629 65.9353 55.2129 62.6306C59.2383 62.2966 63.2461 61.6814 67.2012 60.7849C67.377 61.5056 67.5352 62.2263 67.6758 62.9294C68.5371 66.7263 68.6777 70.6814 68.1152 74.5837ZM71.3145 55.6873C70.8223 55.8455 70.3301 56.0037 69.8203 56.1443C68.5898 52.3123 67.0781 48.5681 65.3379 44.9294C67.0254 41.3435 68.4492 37.6521 69.6445 33.8728C70.5586 34.1365 71.4375 34.4177 72.2812 34.699C80.4727 37.5115 86.2207 41.6951 86.2207 44.8943C86.2207 48.3396 80.0859 52.7869 71.3145 55.6873ZM45 53.0505C49.4473 53.0505 53.0508 49.447 53.0508 44.9998C53.0508 40.5525 49.4473 36.949 45 36.949C40.5527 36.949 36.9492 40.5525 36.9492 44.9998C36.9492 49.447 40.5527 53.0505 45 53.0505Z" fill="#E5E5E5"/>
</svg>
