<svg width="92" height="92" viewBox="0 0 92 92" fill="none" xmlns="http://www.w3.org/2000/svg">
<path d="M43.389 63.67C43.3459 63.7563 43.3027 63.8253 43.389 63.67V63.67ZM79.2014 51.1637C76.3102 51.1628 73.4575 51.8268 70.8639 53.1044C70.0158 51.3937 69.1389 49.8988 68.9952 48.7775C68.8227 47.4694 68.6358 46.6931 68.837 45.1406C69.0383 43.5881 69.9439 41.3887 69.9296 41.2306C69.9152 41.0725 69.7283 40.2819 67.8739 40.2675C66.0195 40.2531 64.4239 40.6269 64.2385 41.1156C63.911 42.0088 63.6562 42.927 63.4766 43.8612C63.146 45.5431 59.7693 51.5519 57.8574 54.6856C57.2249 53.4637 56.693 52.3856 56.578 51.5231C56.4055 50.215 56.2187 49.4387 56.4199 47.8862C56.6212 46.3337 57.5268 44.1344 57.5124 43.9762C57.498 43.8181 57.3112 43.0275 55.4582 43.0131C53.6053 42.9987 52.0082 43.3725 51.8214 43.8612C51.6345 44.35 51.4332 45.5 51.0595 46.6069C50.6857 47.7137 46.1878 57.7187 45.0105 60.3206C44.4067 61.6431 43.8892 62.7069 43.5155 63.4256C43.458 63.5406 43.4149 63.6125 43.3861 63.67C43.4292 63.5981 43.458 63.5262 43.458 63.555C43.1417 64.1731 42.9549 64.5181 42.9549 64.5181V64.5325C42.7105 64.9925 42.4374 65.4094 42.308 65.4094C42.2217 65.4094 42.0349 64.2019 42.3511 62.5487C43.0267 59.07 44.6224 53.665 44.608 53.4781C44.5936 53.3775 44.9099 52.4431 43.5586 51.94C42.2505 51.4656 41.7761 52.2562 41.6611 52.2562C41.5461 52.2562 41.4599 52.5437 41.4599 52.5437C41.4599 52.5437 42.9117 46.4487 38.6725 46.4487C36.0275 46.4487 32.3475 49.3525 30.5392 51.9831C29.4035 52.6012 26.9454 53.9381 24.3579 55.3612C23.366 55.9075 22.3454 56.4681 21.3823 57C21.3104 56.9281 21.2529 56.8562 21.181 56.7844C16.0362 51.2931 6.53724 47.4119 6.93974 40.0375C7.08349 37.3494 8.01786 30.2912 25.206 21.7237C39.2935 14.7087 50.5564 16.635 52.4955 20.9187C55.2843 27.0281 46.4739 38.3987 31.8444 40.0375C26.2684 40.6556 23.3373 38.4994 22.6042 37.6944C21.8423 36.8462 21.7273 36.8031 21.4398 36.9612C20.9654 37.22 21.2673 37.9675 21.4398 38.4131C21.871 39.5487 23.6679 41.5612 26.7284 42.5675C29.4165 43.4444 35.9542 43.9331 43.859 40.8712C52.7399 37.45 59.6529 27.9194 57.626 19.9412C55.5617 11.8337 42.1182 9.17437 29.4064 13.6881C21.8322 16.3762 13.6414 20.6025 7.74905 26.1081C0.749863 32.6631 -0.36995 38.37 0.0900503 40.7562C1.72736 49.2231 13.397 54.7431 18.0674 58.8256C17.8374 58.955 17.6218 59.07 17.4205 59.185C15.0789 60.3494 6.18218 65.0069 3.95549 69.9231C1.43986 75.5006 4.37236 79.4969 6.29718 80.0431C12.3045 81.7106 18.4555 78.7063 21.7604 73.7756C25.0652 68.845 24.6641 62.405 23.1404 59.4725C23.126 59.4294 23.0972 59.4006 23.0829 59.3575C23.6866 58.9981 24.3047 58.6388 24.9229 58.2794C26.1145 57.575 27.2789 56.9281 28.2995 56.3675C27.7245 57.92 27.3077 59.7887 27.092 62.4912C26.8333 65.6537 28.1414 69.7506 29.8377 71.3606C30.5852 72.065 31.4894 72.0794 32.05 72.0794C34.0337 72.0794 34.925 70.4406 35.9154 68.4856C37.1373 66.0994 38.2154 63.325 38.2154 63.325C38.2154 63.325 36.8642 70.8288 40.5585 70.8288C41.9084 70.8288 43.2596 69.0894 43.8648 68.1981V68.2125C43.8648 68.2125 43.8936 68.155 43.9654 68.04C44.1092 67.8244 44.181 67.695 44.181 67.695V67.6519C44.7273 66.7175 45.9204 64.5756 47.7159 61.0394C50.0446 56.4681 52.2713 50.7612 52.2713 50.7612C52.4865 52.0158 52.7842 53.2547 53.1625 54.47C53.565 55.8356 54.4132 57.3306 55.0888 58.7825C54.5425 59.53 54.2119 59.9612 54.2119 59.9612C54.213 59.9723 54.2181 59.9825 54.2263 59.99C53.7951 60.565 53.3063 61.1831 52.8032 61.7869C50.9646 63.9719 48.7782 66.4731 48.4907 67.1919C48.1457 68.04 48.2319 68.6725 48.8932 69.1612C49.3819 69.535 50.2444 69.5925 51.1486 69.5206C52.8017 69.4056 53.9661 69.0031 54.5267 68.7444C55.5603 68.3738 56.5371 67.8609 57.4291 67.2206C59.2259 65.8981 60.3184 64.0006 60.2178 61.4994C60.1603 60.1194 59.7147 58.7394 59.1684 57.4456C59.3265 57.2156 59.4991 56.9712 59.6572 56.7269C62.502 52.5725 64.7014 48.0127 64.7014 48.0127C64.9165 49.2673 65.2143 50.5062 65.5926 51.7215C65.9376 52.8859 66.6118 54.1652 67.2299 55.4159C64.5576 57.5865 62.9045 60.1021 62.3295 61.7552C61.2657 64.8171 62.0995 66.1971 63.6664 66.5134C64.3707 66.6571 65.377 66.3265 66.1245 66.0103C67.2346 65.6405 68.2814 65.1023 69.2281 64.4146C71.0249 63.0921 72.7629 61.2377 72.6479 58.7221C72.6047 57.5865 72.2885 56.4509 71.8716 55.3584C74.1285 54.4096 77.0596 53.8921 80.7971 54.3234C88.8011 55.2577 90.3679 60.2603 90.066 62.3446C89.7642 64.429 88.0823 65.5934 87.5217 65.9384C86.9611 66.2834 86.7886 66.4127 86.8317 66.6715C86.9035 67.0452 87.1623 67.0309 87.6367 66.9446C88.2979 66.8296 91.8327 65.2484 91.9909 61.3815C92.2209 56.494 87.5217 51.1177 79.1971 51.1609L79.2014 51.1637ZM17.5068 71.9644C14.8632 74.8537 11.1545 75.9463 9.5603 75.0263C7.84968 74.0315 8.5253 69.7794 11.787 66.7002C13.7707 64.8315 16.3281 63.1065 18.0243 62.0428C18.4124 61.8127 18.973 61.4678 19.663 61.0509C19.778 60.979 19.8356 60.9502 19.8356 60.9502C19.9649 60.864 20.1087 60.7921 20.2524 60.7059C21.4441 65.0759 20.2955 68.9284 17.5068 71.9615V71.9644ZM36.821 58.8256C35.901 61.0825 33.9619 66.8325 32.7831 66.5306C31.7769 66.2719 31.1587 61.8875 32.5819 57.575C33.3006 55.4044 34.8244 52.8169 35.73 51.8106C37.1804 50.1862 38.7761 49.6687 39.1498 50.3156C39.6529 51.1637 37.396 57.4169 36.821 58.8256ZM52.7773 66.4444C52.3892 66.6456 52.0298 66.775 51.8573 66.6744C51.7279 66.6025 52.0154 66.3294 52.0154 66.3294C52.0154 66.3294 54.0135 64.1875 54.8042 63.21C55.2642 62.635 55.7961 61.9594 56.3696 61.2119C56.3696 61.2837 56.384 61.3556 56.384 61.4419C56.3653 64.015 53.8942 65.7544 52.773 66.4444H52.7773ZM65.0794 63.6413C64.7919 63.44 64.8351 62.7644 65.7982 60.6656C66.1719 59.8462 67.033 58.4662 68.5294 57.1437C68.6988 57.6444 68.7909 58.1679 68.8026 58.6963C68.7882 61.9306 66.4738 63.1381 65.0809 63.6413H65.0794Z" fill="#E5E5E5"/>
</svg>
